<svg width="767" height="100" viewBox="0 0 767 100" fill="none" xmlns="http://www.w3.org/2000/svg">
<path d="M347.725 17.4389C361.689 17.4389 373.078 28.0133 373.078 42.6575C373.078 43.6074 372.928 45.3673 372.808 46.3173C372.553 48.3172 371.453 48.6221 370.233 48.6221H336.065C335.997 48.622 335.929 48.636 335.866 48.6632C335.803 48.6905 335.746 48.7305 335.699 48.7807C335.652 48.8309 335.616 48.8902 335.593 48.955C335.57 49.0198 335.561 49.0886 335.565 49.1571C336.23 54.5718 339.04 60.8414 348.385 60.8414C352.584 60.8414 354.479 59.1715 356.919 57.4116C358.419 56.4117 358.859 56.3717 360.419 57.4116L368.514 62.7563C369.539 63.5413 369.563 64.2862 368.379 65.4262C363.909 69.6309 356.639 74.3807 347.825 74.3807C331.561 74.3807 320.036 61.5014 320.036 45.9123C320.036 30.5932 331.536 17.4139 347.69 17.4139L347.725 17.4389ZM358.169 39.5577C357.724 34.058 352.984 29.4832 347.355 29.4832C344.537 29.4844 341.814 30.505 339.689 32.3567C337.565 34.2083 336.182 36.766 335.795 39.5577H358.169Z" fill="#ffffff"/>
<path d="M502.261 17.4389C516.23 17.4389 527.614 28.0133 527.614 42.6575C527.587 43.8812 527.497 45.1027 527.344 46.3173C527.09 48.3172 525.99 48.6221 524.77 48.6221H490.607C490.538 48.622 490.47 48.636 490.407 48.6632C490.344 48.6905 490.287 48.7305 490.24 48.7807C490.193 48.8309 490.157 48.8902 490.134 48.955C490.111 49.0198 490.102 49.0886 490.107 49.1571C490.767 54.5718 493.576 60.8414 502.921 60.8414C507.121 60.8414 509.016 59.1715 511.455 57.4116C512.955 56.4117 513.395 56.3717 514.955 57.4116L523.05 62.7563C524.05 63.5413 524.105 64.2862 522.92 65.4262C518.42 69.6309 511.175 74.3807 502.366 74.3807C486.097 74.3807 474.573 61.5014 474.573 45.9123C474.573 30.5932 486.072 17.4139 502.226 17.4139L502.261 17.4389ZM512.67 39.5327C512.225 34.033 507.486 29.4582 501.856 29.4582C499.038 29.4594 496.315 30.48 494.19 32.3317C492.066 34.1833 490.683 36.741 490.297 39.5327H512.67Z" fill="#ffffff"/>
<path d="M381.153 66.5161L385.153 60.3314C385.698 58.9765 387.053 58.7065 388.273 59.3815C388.273 59.3815 393.697 62.2313 399.937 62.2313C402.647 62.2313 406.411 60.9514 406.536 58.1916C406.681 55.0517 403.152 53.8268 395.967 50.982C385.528 46.9122 379.928 42.3875 380.468 33.438C380.968 25.0785 386.568 17.4389 400.397 17.4389C408.396 17.4389 414.201 19.7388 417.046 21.6386C418.266 22.4536 418.946 23.9435 418.266 25.2984L415.061 31.3831C414.381 32.603 412.891 32.738 411.806 32.333C411.806 32.333 406.436 29.5732 400.557 29.4832C397.302 29.4332 395.182 31.6331 395.217 33.393C395.282 36.5978 398.217 37.5277 403.217 39.5626C414.586 43.6574 421.551 48.0621 421.551 57.8366C421.551 66.7861 413.691 74.3806 399.997 74.3806C391.047 74.3806 384.813 71.5308 381.963 69.3809C381.153 68.701 380.608 67.616 381.153 66.5311" fill="#ffffff"/>
<path d="M725.963 66.5161L729.963 60.3314C730.508 58.9765 731.863 58.7065 733.083 59.3815C733.083 59.3815 738.507 62.2313 744.747 62.2313C747.457 62.2313 751.247 60.9514 751.352 58.1916C751.492 55.0517 747.962 53.8268 740.777 50.982C730.343 46.9122 724.738 42.3875 725.278 33.438C725.778 25.0785 731.378 17.4389 745.202 17.4389C753.202 17.4389 759.006 19.7388 761.856 21.6386C763.076 22.4536 763.751 23.9435 763.076 25.2984L759.871 31.3831C759.191 32.603 757.701 32.738 756.616 32.333C756.616 32.333 751.242 29.5732 745.362 29.4832C742.107 29.4332 739.992 31.6331 740.027 33.393C740.092 36.5978 743.027 37.5277 748.027 39.5626C759.396 43.6574 766.361 48.0621 766.361 57.8366C766.361 66.7861 758.501 74.3806 744.807 74.3806C735.862 74.3806 729.623 71.5308 726.778 69.3809C725.963 68.701 725.423 67.616 725.963 66.5311" fill="#ffffff"/>
<path d="M436.305 32.178L429.87 32.113C429.223 32.113 428.602 31.856 428.145 31.3984C427.687 30.9409 427.43 30.3203 427.43 29.6732V21.0587C427.415 20.7278 427.466 20.3972 427.582 20.0867C427.697 19.7761 427.874 19.4921 428.102 19.2517C428.33 19.0112 428.604 18.8193 428.908 18.6873C429.211 18.5554 429.539 18.4861 429.87 18.4838L435.82 18.5438C435.952 18.5438 436.079 18.4912 436.173 18.3974C436.267 18.3036 436.32 18.1764 436.32 18.0438V7.12449C436.321 6.44113 436.593 5.78622 437.077 5.30348C437.561 4.82075 438.216 4.54962 438.9 4.54962H448.319C448.98 4.57814 449.605 4.86276 450.06 5.34328C450.515 5.82379 450.766 6.46255 450.759 7.12449V17.9989C450.759 18.1315 450.811 18.2586 450.905 18.3524C450.999 18.4461 451.126 18.4988 451.259 18.4988H463.513C463.852 18.4982 464.187 18.5643 464.5 18.6934C464.813 18.8225 465.097 19.0121 465.337 19.2512C465.577 19.4904 465.767 19.7745 465.896 20.0872C466.026 20.3999 466.093 20.7351 466.093 21.0737V29.6182C466.093 29.9567 466.026 30.292 465.896 30.6047C465.767 30.9174 465.577 31.2015 465.337 31.4406C465.097 31.6798 464.813 31.8694 464.5 31.9985C464.187 32.1276 463.852 32.1937 463.513 32.193H450.734V54.7367C450.734 58.5315 453.019 60.7714 455.189 60.7714C457.493 60.7714 461.773 59.3965 463.268 58.8565C464.763 58.3165 466.023 58.9615 466.268 60.3564L467.918 68.081C468.248 69.5809 467.783 70.7908 466.418 71.3358C465.738 71.7408 457.143 74.6456 450.504 74.4056C442.379 74.1106 436.31 67.906 436.31 56.9066L436.305 32.178Z" fill="#ffffff"/>
<path d="M538.074 21.0587C538.073 20.7199 538.139 20.3844 538.269 20.0714C538.398 19.7584 538.589 19.4741 538.828 19.2348C539.068 18.9955 539.353 18.8059 539.666 18.6771C539.979 18.5482 540.315 18.4825 540.654 18.4838H546.818C547.361 18.4726 547.893 18.6382 548.333 18.9557C548.773 19.2732 549.098 19.7253 549.258 20.2437L550.258 25.9384C552.153 23.2236 556.183 17.4389 564.587 17.4389C570.962 17.4389 575.692 19.1888 574.087 22.5786L571.007 29.6232C570.392 30.9531 569.112 32.323 567.342 31.8331C566.04 31.5354 564.708 31.3828 563.372 31.3781C558.143 31.3781 553.773 35.4379 552.613 37.4277C552.535 37.5685 552.496 37.727 552.498 37.8877V71.2758C552.498 71.9163 552.244 72.5305 551.791 72.9834C551.338 73.4362 550.724 73.6907 550.083 73.6907H540.509C539.868 73.6894 539.254 73.4347 538.801 72.9822C538.347 72.5298 538.092 71.9163 538.089 71.2758L538.074 21.0587Z" fill="#ffffff"/>
<path d="M617.229 -8.54763e-05C624.754 -0.021812 632.115 2.18824 638.384 6.35056C644.652 10.5129 649.545 16.4405 652.444 23.3839C655.344 30.3272 656.119 37.9744 654.672 45.3583C653.225 52.7422 649.621 59.5312 644.315 64.8668C639.01 70.2023 632.241 73.8447 624.866 75.3334C617.49 76.822 609.839 76.0901 602.879 73.2301C595.919 70.3701 589.964 65.5105 585.767 59.2659C581.569 53.0212 579.317 45.672 579.296 38.1477C579.296 17.0139 596.095 -8.54763e-05 617.229 -8.54763e-05V-8.54763e-05ZM617.229 61.6364C630.154 61.6364 640.823 51.067 640.823 38.1377C640.823 25.2084 630.154 14.4441 617.229 14.4441C604.305 14.4441 593.731 25.2134 593.731 38.1377C593.745 44.3655 596.226 50.334 600.629 54.7377C605.033 59.1414 611.001 61.6218 617.229 61.6364" fill="#ffffff"/>
<path d="M692.645 17.4389C682.94 17.2939 679.186 21.8437 676.281 25.9384L675.231 20.2438C675.072 19.7303 674.751 19.2818 674.317 18.9648C673.883 18.6478 673.359 18.4791 672.821 18.4838H666.656C666.318 18.4832 665.983 18.5493 665.67 18.6785C665.358 18.8077 665.073 18.9973 664.834 19.2366C664.595 19.4758 664.405 19.7599 664.276 20.0726C664.147 20.3853 664.081 20.7204 664.082 21.0587V92.0546C664.057 96.2044 666.911 99.6742 671.011 99.9792C672.977 100.126 674.922 99.4929 676.425 98.2166C677.928 96.9403 678.867 95.1236 679.041 93.1596V86.8649C679.043 86.835 679.043 86.8049 679.041 86.7749V69.2509C681.731 71.0708 686.67 74.3807 691.955 74.3807C706.599 74.3807 717.953 61.9064 717.953 45.9123C717.958 30.3082 707.554 17.6639 692.645 17.4389ZM686.75 60.3064C681.471 59.5965 678.561 57.2116 678.561 57.2116V40.0426C679.421 37.0428 683 31.3081 690.3 31.3081C698.3 31.3081 703.764 38.0877 703.609 46.2523C703.439 54.9818 695.4 61.4764 686.75 60.3064Z" fill="#ffffff"/>
<path d="M289.618 74.1456C288.159 74.1454 286.734 73.7015 285.533 72.8728C284.332 72.0442 283.412 70.8699 282.894 69.5059V69.5059L268.464 35.8078L254.6 70.1108C253.983 71.3699 253.012 72.4214 251.806 73.1363C250.6 73.8511 249.211 74.1983 247.811 74.1351C246.41 74.072 245.058 73.6012 243.921 72.7806C242.785 71.96 241.912 70.8253 241.411 69.5159V69.5159L216.677 2.84472C216.536 2.50558 216.49 2.13389 216.545 1.7705C216.601 1.4071 216.756 1.06607 216.992 0.784836C217.161 0.610696 217.365 0.475651 217.592 0.38926C217.818 0.302869 218.061 0.267238 218.302 0.284865H227.302C230.302 0.284865 231.482 2.05476 232.152 3.65967L247.821 48.6071L265.735 4.28463C266.574 2.56945 268.06 1.25794 269.867 0.638635C271.673 0.019332 273.651 0.142942 275.367 0.982304C277.082 1.82167 278.393 3.30802 279.013 5.11436C279.632 6.9207 279.508 8.89907 278.669 10.6143L275.914 17.4289H275.949L288.853 49.852L307.402 4.40462C308.231 2.71182 309.69 1.41134 311.466 0.782426C313.243 0.153516 315.195 0.246339 316.904 1.04093C318.613 1.83551 319.943 3.26852 320.607 5.03227C321.271 6.79602 321.217 8.74986 320.456 10.4743L296.168 69.9709C295.589 71.2201 294.665 72.2773 293.504 73.0172C292.343 73.7571 290.995 74.1487 289.618 74.1456V74.1456Z" fill="#ffffff"/>
<path d="M7.18943 75.1705C5.96376 75.1714 4.75802 74.8604 3.68566 74.2669C2.6133 73.6733 1.70958 72.8167 1.05953 71.7776C0.409475 70.7385 0.0344629 69.5512 -0.0302159 68.3272C-0.0948946 67.1032 0.152886 65.883 0.689805 64.7811L24.8084 5.15958C25.655 3.44997 27.1443 2.14527 28.9505 1.53095C30.7566 0.916625 32.7326 1.0427 34.446 1.88157C36.1594 2.72044 37.4709 4.20381 38.0934 6.00716C38.7159 7.8105 38.5988 9.787 37.7677 11.5042L13.6741 71.1258C13.0783 72.3411 12.1532 73.3647 11.004 74.0798C9.85487 74.7949 8.52793 75.1729 7.17443 75.1705" fill="#21A7F9"/>
<path d="M48.6421 75.1705C47.4299 75.1695 46.2375 74.8631 45.175 74.2796C44.1125 73.6961 43.2142 72.8542 42.563 71.8318C41.9118 70.8094 41.5287 69.6394 41.449 68.4298C41.3694 67.2202 41.5959 66.0101 42.1075 64.9112L66.4411 5.30958C67.2453 3.57317 68.7064 2.22737 70.5029 1.56821C72.2994 0.909062 74.2841 0.990542 76.0205 1.79476C77.7569 2.59899 79.1027 4.06008 79.7619 5.85657C80.421 7.65307 80.3395 9.63782 79.5353 11.3742L55.1867 70.9958C54.6067 72.2427 53.6827 73.2981 52.5233 74.0376C51.3638 74.7772 50.0173 75.1703 48.6421 75.1705" fill="#FF7964"/>
<path d="M129.607 0.0348874C137.145 0.0131608 144.519 2.22699 150.798 6.39646C157.077 10.5659 161.978 16.5037 164.882 23.459C167.787 30.4142 168.563 38.0744 167.114 45.471C165.664 52.8675 162.054 59.6681 156.739 65.0127C151.425 70.3573 144.645 74.0059 137.256 75.4971C129.868 76.9883 122.204 76.255 115.232 73.3901C108.261 70.5252 102.295 65.6572 98.0906 59.4019C93.8858 53.1466 91.6303 45.7849 91.6095 38.2477C91.5865 33.2411 92.5521 28.2793 94.4508 23.6467C96.3496 19.0142 99.1442 14.802 102.674 11.2519C106.205 7.7017 110.401 4.88335 115.023 2.95849C119.644 1.03362 124.601 0.040099 129.607 0.0348874ZM129.607 61.7763C142.557 61.7763 153.241 51.1919 153.241 38.2427C153.241 25.2934 142.557 14.5091 129.607 14.5091C116.658 14.5091 106.079 25.3084 106.079 38.2427C106.095 44.4793 108.579 50.456 112.989 54.866C117.399 59.276 123.376 61.7605 129.612 61.7763" fill="#00CCDB"/>
</svg>
